<svg viewBox="0 0 183.941 42.333" xmlns="http://www.w3.org/2000/svg">
  <g class="mountains" fill-rule="evenodd">
    <path fill="#5b5b5b" d="m53.626 19.405 5.14-8.975 5.084-.856 4.422-5.695L74.01 0l9.455 10.168 4.365.683 10.357 11.114 8.067 15.427-8.642-13.213-10.078-10.392-4.366-.5-9.182-9.49-5.146 3.696-4.509 5.996-5.062 1.065-5.479 8.24-2.807-2.914-6.113-.916-5.98-6.407-2.478-.706-6.052 10.213-6.046 5.583-7.884 7.28-.831-.235 13.991-15.025L36.006 6.58l3.242 1.059 5.938 8.073 6.105 1.171 2.335 2.522"/>
    <path fill="#9d9e9e" d="m38.89 13.943 5.979 6.07 6.113.867 2.807 2.76-6.051 9.858-4.41 2.155-1.024-5.091-10.187-.044 6.137-4.551-.943-3.057-5.945 2.275 5.964-5.997zm35.095-8.297 9.182 8.989 4.366.473 10.078 9.844 8.642 12.518-7.499 1.389-13.427-3.245-4.78 2.442-2.5-8.315-9.17 1.38 9.22-6.399-4.135-6.043-13.052 6.936 9.886-7.587 3.19-12.382"/>
  </g>
  <g class="badge" fill-rule="evenodd">
    <path d="M30.394 18.91a3.203 3.203 0 0 0-.815-.296l-7.646-1.693c-1.626-.36-2.419-.643-4.073.22L1.53 23.902c-1.372.568-2.013 2.575-1.11 3.911L9.1 40.672c.902 1.336 2.364 2.091 3.681 1.4l14.874-7.79c1.652-.868 2.255-1.507 2.604-3.222l1.58-7.769a6 6 0 0 0 .1-1.902c-.519.307-1.033.623-1.547.937-.323.197-.49.317-.807.51-.504 1.534-1.914 1.28-2.67.325-.862-1.091-.08-2.73 1.32-2.104.823-.495 1.964-1.201 2.798-1.678a2.732 2.732 0 0 0-.64-.469zm-4.535-.185c-2.005-.254-5.734-.943-7.229-.163l-.064.033L2.33 25.317c-.47.195-.646 1.05-.372 1.455l8.596 12.73c.28.417.97 1.154 1.538.856l14.728-7.713c1.941-1.017 2.567-4.304 3.316-6.321l-.892 4.39c-.3 1.47-.787 1.864-2.1 2.552L12.419 40.98c-.952.498-1.936-.33-2.445-1.085L1.377 27.164c-.525-.777-.194-2.131.684-2.495l16.209-6.71.036-.019c1.373-.716 1.968-.452 3.402-.135z" fill="#dd2d4c"/>
    <path fill="#dd2d4c" d="M40.468 17.803a16.11 16.11 0 0 0-2.561.45c-2.242.592-4.238 1.557-6.223 2.733-.521.308-1.038.625-1.54.932-.525.32-.871.584-1.444.877-.413.211-.804-.148-.892-.394-.107-.3.277-.702.473-.817 1.028-.605 2.036-1.248 3.074-1.837.915-.52 1.91-1.057 2.873-1.467 1.346-.573 2.411-.945 3.37-1.198.971-.257 1.826-.39 2.745-.485 1.302-.134 2.213-.393 2.807-.739.454-.265.702-.574.784-.908.076-.305.025-.66-.124-1.042-.141-.302-.338-1.566-1.038-2.559-.75-1.062-2.01-1.851-2.323-2.007l-.988-1.399c1.747-.087 4.068 2.053 4.718 3.457.31.684 1.085 3.208.928 3.843-.16.648-.586 1.217-1.344 1.66-.74.432-1.815.748-3.295.9zM28.8 17.596l.158-.64c.956-3.91 1.884-7.7 5.684-8.938l.002.001c.429-.119.708-.097.708-.097l-.7 1.42c-3.162 1.03-3.644 4.325-4.52 7.901l-.151.62a4.605 4.605 0 0 0-.224-.055l-.957-.212"/>
    <path fill="#fff" d="M15.61 24.862c-.905-1.45-2.672-1.878-4.24-1.22-1.647.692-2.023 2.136-1.216 3.428.767 1.228 2.44 1.943 4.264 1.177 1.513-.635 2.106-1.922 1.2-3.372zm-1.145.431c.384.614-.158 1.138-1.05 1.513-1 .42-1.765.394-2.115-.167-.36-.575.107-1.166 1.033-1.538.892-.375 1.757-.408 2.124.18zM7.22 29.77l12.105 1.067-.66-1.058-12.114-1.08zm8.561 2.736c-.897-1.437-2.664-1.865-4.231-1.207-1.648.692-2.01 2.13-1.212 3.41.767 1.227 2.441 1.942 4.264 1.176 1.5-.629 2.093-1.917 1.188-3.366zm-1.137.444c.375.601-.167 1.125-1.058 1.5-.986.413-1.751.389-2.102-.173-.35-.561.115-1.153 1.042-1.525.878-.369 1.743-.403 2.11.185l.008.013"/>
  </g>
  <path d="m112.653 12.841.089.459h.05l.086-.426 2.506-9.231h3.068l-4.092 12.622h-3.163l-4.074-12.622h3.06zm16.397-1.751c0 1.553-.491 2.831-1.476 3.84-.986 1.01-2.273 1.512-3.862 1.512-1.6 0-2.9-.503-3.894-1.512-.993-1.009-1.49-2.287-1.49-3.84V8.818c0-1.548.497-2.826 1.488-3.838.99-1.01 2.284-1.515 3.878-1.515 1.584 0 2.874.506 3.865 1.515.994 1.012 1.491 2.29 1.491 3.838zm-2.92-2.287c0-.903-.213-1.64-.637-2.216-.426-.577-1.023-.867-1.799-.867-.792 0-1.396.287-1.816.86-.42.575-.627 1.314-.627 2.223v2.284c0 .914.21 1.657.636 2.234.423.577 1.032.867 1.825.867.767 0 1.364-.29 1.785-.867.423-.577.633-1.32.633-2.234zm14.275-5.16v8.266c0 1.438-.48 2.554-1.435 3.347-.956.79-2.207 1.186-3.758 1.186-1.565 0-2.828-.396-3.787-1.186-.959-.793-1.438-1.909-1.438-3.347V3.643h2.938v8.266c0 .773.198 1.347.598 1.72.4.372.961.559 1.69.559.721 0 1.278-.184 1.668-.554.39-.37.586-.946.586-1.725V3.643zm11.048 8.186.017.054c-.056 1.48-.494 2.61-1.314 3.388-.816.78-2.003 1.171-3.556 1.171-1.562 0-2.829-.48-3.805-1.438-.98-.958-1.467-2.204-1.467-3.734V8.637c0-1.524.47-2.77 1.408-3.731.94-.962 2.16-1.441 3.663-1.441 1.595 0 2.814.403 3.66 1.204.843.805 1.32 1.944 1.429 3.424l-.018.053h-2.852c-.038-.82-.222-1.43-.55-1.829-.326-.399-.882-.597-1.669-.597-.663 0-1.187.266-1.568.801-.382.533-.571 1.234-.571 2.098v2.651c0 .87.207 1.574.624 2.113.414.535.988.805 1.716.805.704 0 1.204-.187 1.497-.563.296-.375.465-.973.503-1.796zm11.405 4.436h-2.924v-5.078h-4.671v5.078h-2.938V3.643h2.938v5.29h4.671v-5.29h2.924zm9.165-5.397h-4.95v3.142h5.835v2.255h-8.773V3.643h8.79v2.254h-5.852v2.716h4.95zm4.444.568v4.829h-2.938V3.643h4.855c1.462 0 2.618.337 3.474 1.014.858.678 1.284 1.604 1.284 2.779 0 .654-.172 1.216-.515 1.683-.346.47-.852.852-1.52 1.145.771.22 1.328.586 1.668 1.095.337.512.506 1.148.506 1.911v.796c0 .329.05.705.148 1.125.097.423.27.722.512.9v.174h-3.018c-.23-.178-.382-.497-.456-.953a8.257 8.257 0 0 1-.107-1.263v-.76c0-.601-.16-1.06-.479-1.377-.316-.316-.78-.476-1.393-.476zm0-2.255h1.932c.592 0 1.041-.136 1.355-.405.31-.27.468-.654.468-1.16 0-.515-.16-.929-.483-1.245-.32-.317-.772-.474-1.355-.474h-1.917v3.284M123.08 22.646h-5.468v17.032h-4.832V22.646h-5.424v-3.704h15.724zm11.805-3.704v3.704h5.425v17.032h4.831V22.646h5.125v17.032h4.827v-7.933h3.32c1.006 0 1.77.262 2.29.783.524.52.787 1.273.787 2.26v1.249c0 .637.058 1.327.174 2.075.122.749.37 1.274.75 1.566h4.957v-.287c-.399-.292-.68-.783-.841-1.478-.16-.69-.243-1.307-.243-1.847v-1.308c0-1.254-.277-2.298-.831-3.14-.56-.835-1.473-1.438-2.742-1.798 1.1-.481 1.93-1.108 2.499-1.881.563-.768.846-1.691.846-2.766 0-1.93-.7-3.45-2.11-4.564-1.405-1.113-3.305-1.667-5.706-1.667zm-2.675 16.71h-6.537l-1.167 4.026h-4.841l6.688-20.736h5.172l6.707 20.736h-4.84zm-5.468-3.703h4.399l-2.163-7.427h-.088zm28.35-3.908h3.175c.972 0 1.71-.223 2.226-.666.51-.442.768-1.074.768-1.905 0-.846-.262-1.526-.792-2.046-.525-.52-1.269-.778-2.226-.778h-3.15zm19.095-.044h.088l4.127-9.055h5.23l-7.053 13.445v7.29h-4.797v-7.534l-6.907-13.2h5.2l4.112 9.054" class="text" fill-rule="evenodd"/>
</svg>
