<?xml version="1.0" standalone="no"?>
<!DOCTYPE svg PUBLIC "-//W3C//DTD SVG 20010904//EN"
 "http://www.w3.org/TR/2001/REC-SVG-20010904/DTD/svg10.dtd">
<svg version="1.0" xmlns="http://www.w3.org/2000/svg"
 width="512.000000pt" height="512.000000pt" viewBox="0 0 512.000000 512.000000"
 preserveAspectRatio="xMidYMid meet">
<metadata>
Created by potrace 1.14, written by Peter Selinger 2001-2017
</metadata>
<g transform="translate(0.000000,512.000000) scale(0.100000,-0.100000)"
fill="#000000" stroke="none">
<path d="M2935 3858 c-72 -49 -106 -82 -166 -158 l-77 -97 -77 -12 c-42 -6
-81 -13 -85 -16 -4 -2 -44 -70 -90 -150 l-83 -145 -48 45 c-30 28 -57 45 -73
45 -16 0 -32 10 -46 29 -22 32 -130 91 -164 91 -15 0 -40 26 -86 90 -56 76
-71 92 -109 105 -25 8 -50 15 -56 15 -6 0 -37 -54 -70 -120 -46 -93 -65 -122
-86 -131 -72 -29 -140 -133 -155 -234 -7 -48 -15 -58 -191 -247 -102 -109
-178 -198 -170 -198 9 0 93 72 188 160 l174 159 27 -102 c41 -155 52 -183 74
-179 35 7 36 19 6 113 -17 52 -35 121 -41 153 -11 59 -11 61 18 90 15 17 72
105 126 196 54 91 99 167 101 169 2 2 20 0 40 -4 30 -5 58 -28 148 -121 97
-100 115 -114 144 -114 19 0 32 -5 32 -12 0 -7 -33 -42 -72 -78 -185 -166
-234 -228 -358 -458 -77 -144 -89 -185 -54 -190 19 -3 32 17 94 135 110 211
188 313 335 440 44 39 89 86 100 106 16 31 25 37 51 37 25 0 41 -10 77 -49
l46 -49 91 138 91 137 72 13 c40 7 78 15 85 18 7 2 47 49 87 102 58 76 94 112
162 161 l87 63 151 -157 151 -158 75 -10 74 -9 163 -168 c145 -148 176 -187
279 -342 128 -195 152 -226 101 -130 -20 36 -71 133 -113 215 -78 148 -80 152
-248 332 -94 101 -177 185 -186 187 -9 3 -42 8 -73 12 l-58 6 -156 169 c-86
93 -159 169 -163 169 -3 0 -47 -28 -96 -62z m-850 -456 c-3 -3 -11 0 -18 7 -9
10 -8 11 6 5 10 -3 15 -9 12 -12z m-510 -92 c-26 -52 -41 -66 -29 -27 7 23 42
77 50 77 2 0 -7 -22 -21 -50z"/>
<path d="M1595 2766 c-16 -7 -129 -48 -250 -91 -202 -72 -223 -82 -258 -119
-30 -32 -436 -603 -570 -801 -43 -63 -34 -150 19 -196 11 -9 197 -94 414 -189
436 -191 467 -201 529 -158 26 18 88 116 269 428 129 223 241 424 249 448 9
24 13 60 10 80 -5 42 -171 484 -195 520 l-16 24 -30 -58 c-16 -33 -29 -71 -28
-85 1 -14 -7 -38 -19 -53 -16 -21 -29 -26 -62 -26 -46 1 -67 13 -86 48 -17 32
-7 65 25 82 21 12 94 131 94 155 0 10 -65 3 -95 -9z m-294 -175 c-63 -33 -129
-74 -147 -93 -59 -59 -574 -798 -574 -822 0 -13 7 -29 15 -36 19 -16 727 -329
776 -343 20 -6 43 -8 51 -5 12 5 412 682 464 786 21 44 19 143 -6 247 -11 49
-19 90 -17 92 4 4 83 -208 93 -249 3 -16 -2 -42 -14 -70 -33 -75 -463 -812
-484 -830 -11 -10 -36 -18 -56 -18 -48 0 -808 332 -840 366 -14 17 -22 37 -22
62 1 32 27 74 181 292 100 140 230 326 291 413 61 87 120 163 132 169 26 15
247 97 261 97 6 0 -41 -26 -104 -58z m-153 -486 c79 -34 105 -85 77 -151 -32
-78 -97 -124 -175 -124 -146 0 -191 164 -69 251 56 40 110 47 167 24z m349
-171 c-1 -1 -130 -67 -286 -148 -266 -137 -286 -146 -313 -135 -15 6 -28 14
-28 18 0 3 127 72 283 152 l282 146 32 -15 c18 -9 32 -16 30 -18z m-108 -173
c91 -47 95 -136 9 -218 -59 -57 -122 -67 -193 -33 -42 21 -75 63 -75 99 0 55
56 131 115 157 43 19 100 17 144 -5z"/>
<path d="M1045 2017 c-55 -55 -60 -117 -10 -117 37 0 60 15 84 54 35 57 25 96
-26 96 -8 0 -30 -15 -48 -33z"/>
<path d="M1274 1685 c-57 -57 -61 -125 -8 -125 49 0 120 103 94 135 -19 23
-58 18 -86 -10z"/>
<path d="M2073 2506 c3 -8 34 -103 68 -211 l63 -196 55 3 55 3 63 195 c34 107
63 201 63 208 0 9 -13 12 -47 10 l-48 -3 -40 -147 c-22 -81 -43 -149 -46 -153
-3 -3 -24 63 -46 147 l-40 153 -53 3 c-43 3 -52 1 -47 -12z"/>
<path d="M2531 2500 c-19 -12 -42 -31 -52 -43 -36 -45 -50 -162 -28 -242 33
-117 193 -163 286 -82 49 43 63 82 63 174 -1 142 -51 205 -170 211 -53 2 -71
-1 -99 -18z m140 -69 c22 -17 24 -29 27 -113 3 -83 1 -96 -18 -121 -40 -51
-119 -29 -136 38 -3 14 -4 57 -2 96 3 63 7 74 31 95 34 29 67 31 98 5z"/>
<path d="M2832 2356 c3 -180 7 -192 72 -240 41 -31 157 -30 207 2 60 37 69 68
69 246 l0 156 -50 0 -50 0 0 -153 c0 -179 -6 -197 -71 -197 -26 0 -46 7 -59
20 -18 18 -20 33 -20 175 l0 155 -51 0 -50 0 3 -164z"/>
<path d="M3290 2498 c-63 -43 -75 -70 -78 -174 -3 -80 -1 -100 18 -138 40 -84
143 -118 234 -78 37 17 51 30 66 64 29 64 27 68 -30 68 -43 0 -50 -3 -50 -19
0 -54 -83 -71 -119 -25 -18 23 -21 41 -21 116 0 81 2 91 25 113 13 14 36 25
50 25 30 0 65 -32 65 -60 0 -17 7 -20 51 -20 51 0 51 0 44 28 -20 82 -74 122
-166 122 -42 0 -65 -6 -89 -22z"/>
<path d="M3580 2310 l0 -210 45 0 44 0 3 83 3 82 78 3 77 3 0 -86 0 -85 50 0
50 0 0 210 0 210 -50 0 -50 0 0 -90 0 -91 -77 3 -78 3 -3 88 -3 87 -44 0 -45
0 0 -210z"/>
<path d="M3970 2310 l0 -210 145 0 145 0 0 35 0 35 -95 0 -95 0 0 55 0 55 80
0 80 0 0 35 0 35 -80 0 -80 0 0 45 0 45 95 0 95 0 0 40 0 40 -145 0 -145 0 0
-210z"/>
<path d="M4287 2513 c-4 -3 -7 -98 -7 -210 l0 -203 50 0 50 0 0 80 0 80 43 0
c62 0 87 -21 87 -73 0 -80 6 -87 67 -87 50 0 53 1 43 19 -5 11 -10 39 -10 63
0 51 -18 90 -47 102 -21 10 -21 10 8 37 24 22 29 35 29 74 0 88 -65 125 -221
125 -47 0 -89 -3 -92 -7z m209 -98 c31 -47 -5 -85 -82 -85 l-34 0 0 55 0 55
50 0 c42 0 52 -4 66 -25z"/>
<path d="M2080 1945 l0 -65 90 0 90 0 0 -280 0 -280 80 0 80 0 0 280 0 280 90
0 90 0 0 65 0 65 -260 0 -260 0 0 -65z"/>
<path d="M2680 1913 c-56 -177 -183 -568 -187 -580 -4 -10 15 -13 76 -13 l80
0 19 63 18 62 111 3 111 3 17 -66 18 -65 78 0 c57 0 79 4 78 13 0 6 -48 161
-107 342 l-108 330 -86 3 -87 3 -31 -98z m155 -218 c19 -65 35 -120 35 -122 0
-1 -31 -3 -70 -3 -47 0 -70 4 -70 12 0 18 63 238 67 234 2 -2 19 -56 38 -121z"/>
<path d="M3000 1946 l0 -66 90 0 90 0 0 -280 0 -280 80 0 80 0 0 280 0 280 85
0 85 0 0 -280 0 -280 80 0 80 0 0 130 0 130 70 0 c118 0 134 -17 144 -154 3
-43 11 -85 17 -92 8 -10 37 -14 95 -14 l84 0 -16 25 c-10 16 -19 59 -23 118
-8 104 -24 138 -79 166 l-35 18 34 21 c49 30 69 70 69 137 0 62 -14 97 -57
137 -66 63 -66 63 -540 66 l-433 3 0 -65z m845 -91 c28 -27 34 -89 12 -119
-15 -20 -73 -35 -139 -36 l-48 0 0 90 0 90 75 0 c67 0 79 -3 100 -25z"/>
<path d="M4000 2004 c0 -4 52 -105 115 -225 l115 -218 0 -121 0 -120 80 0 80
0 0 124 0 124 115 219 114 218 -76 3 c-42 2 -81 1 -88 -2 -6 -2 -40 -66 -74
-143 -35 -76 -66 -141 -70 -146 -4 -4 -38 60 -75 143 l-68 150 -84 0 c-46 0
-84 -3 -84 -6z"/>
</g>
</svg>
