<svg xmlns="http://www.w3.org/2000/svg" viewBox="0 0 643.84857 425.36414">
  <g transform="matrix(.13333 0 0 -.13333 -74.92567466 609.53181987)">
    <g class="mountains" fill-rule="evenodd">
      <path fill="#5b5b5b" d="m2739.78 3818.29 199.52 348.35 197.31 33.23 171.66 221.08 222.67 150.55 367-394.67 169.45-26.51 401.99-431.39 313.16-598.84-335.45 512.89-391.2 403.38-169.47 19.4-356.4 368.32-199.73-143.43-175.02-232.75-196.5-41.34-212.67-319.82-108.96 113.09-237.28 35.55-232.09 248.71-96.2 27.39-234.93-396.39-234.67-216.71-.01-.01-306-282.58-32.28 9.11 543.08 583.21 249.09 507.99 125.81-41.1 230.5-313.36 236.98-45.47 90.64-97.88"/>
      <path fill="#9d9e9e" d="m2167.77 4030.29 232.09-235.6 237.28-33.68 108.96-107.13-234.88-382.61-171.2-83.66-39.72 197.62-395.41 1.71 238.22 176.64-36.61 118.65-230.77-88.3 231.5 232.76zm1362.25 322.07 356.4-348.91 169.47-18.37 391.2-382.12 335.45-485.87-291.09-53.91-521.2 125.93-185.56-94.78-97.03 322.76-355.88-53.56 357.87 248.36-160.51 234.59-506.65-269.25 383.76 294.51 123.77 480.62"/>
    </g>
    <g class="badge" fill-rule="evenodd">
    <path d="M252.92188 413.88477c-2.25017.16766-4.57738.66406-6.97071 1.52539l-60.57226 21.80078c-12.87731 4.63332-19.63258 6.15152-27.33789 19.41015L74.222656 575.31445c-7.038516 9.96664-2.683425 26.72804 9.455078 32.05469l116.794926 51.24805c12.13863 5.32798 25.61163 4.15748 31.73828-6.42383l69.16992-119.45313c7.66665-13.28263 9.05649-20.37429 3.95117-33.82226l-23.12695-60.93359c-1.97866-5.21466-4.56231-9.86355-7.6543-13.65821-2.25866 4.41599-4.44987 8.86994-6.64453 13.3086-1.37733 2.78532-2.0079 4.34923-3.36523 7.08789 3.22932 12.87063-7.6836 17.30322-17.12891 13.97656-10.78264-3.79866-12.54033-18.61416-.0684-20.41016 3.54799-7.05865 8.37795-16.97847 12.08594-23.95312-2.08466-.45733-4.25765-.61884-6.50781-.45117zm-32.33399 18.625c-15.05063 7.03864-43.99438 18.62621-50.95703 30.60351l-.29688.51367L86 581.63086c-2.409861 3.41332.123677 10.12752 3.802734 11.74219l115.636716 50.74023c3.78133 1.66 11.8079 3.75335 14.44922-.80664l68.48828-118.27148c9.02931-15.59196-1.05522-41.18157-4.69922-58.49219l13.06641 34.42773c4.37599 11.52931 2.72179 16.41449-3.38086 26.95313l-68.48633 118.27148c-4.42532 7.64398-14.89863 6.20331-21.75195 3.19531L87.486328 598.65039c-7.059849-3.09733-10.701568-13.9611-6.195312-20.34375l83.187504-117.79687.16992-.29102c6.39731-11.00931 11.68947-11.78506 23.05078-15.87305z" style="fill:#dd2d4c;fill-opacity:1;stroke-width:.133333" transform="matrix(7.50002 0 0 -7.50002 30.593826 6344.1453)"/>
    <path fill="#dd2d4c" d="M2416.13 3629.41c-42.19-33.14-79.78-65.98-118.66-107.78-97.38-104.67-169.62-220.71-234.39-347.38-17-33.23-33.51-66.74-49.61-99.3-16.79-33.96-26.15-59.12-46.34-93.24-14.57-24.62-46.81-18.76-59.47-8.85-15.47 12.13-8.7 45.69-2.27 58.18 33.68 65.41 65.02 132.1 99.73 196.94 30.63 57.22 64.8 118.03 101.48 171.09 51.3 74.19 94.56 128.68 136.19 173.43 42.18 45.34 82.35 80.49 127.14 115.68 63.44 49.83 102.43 93.32 121.95 130.91 14.96 28.82 17.7 53.07 11.01 73.16-6.12 18.41-20.44 35.2-40.84 50.25l-20.76 13.55c-11.88 6.9-24.97 13.27-39.08 19.11l-73.79 100.32c64.53-14.41 122.47-35.79 165.92-64.48 38.63-25.5 66.6-57.14 79.31-95.36 13.01-39.1 9.52-82.74-15.4-130.76-24.36-46.92-69.96-98.78-142.12-155.47zm-614.99-373.43c-4.28 12.89-8.59 25.75-12.89 38.6-78.88 235.31-155.34 463.42 1.99 653.03h.15c26.81 32.3 71.95 63.75 128.39 88.95l-62.24-126.93c-3.18-3.2-6.12-6.4-8.79-9.61l.09-.07c-130.93-157.78-60.99-366.45 11.16-581.69 4.17-12.43 8.34-24.88 12.49-37.35-4.47-1.36-8.97-2.84-13.5-4.47l-56.85-20.46"/>
    <path fill="#fff" d="M1352.88 2442.95c-94.93 45.75-201.17 9.86-261.17-76.01-63.1-90.31-35.19-177.98 49.47-218.78 80.39-38.75 191.18-20.89 261.01 79.05 57.94 82.91 46.47 169.58-48.46 215.33zm-45.5-60.21c40.2-19.37 29.21-64.54-4.93-113.4-38.27-54.78-79-78.7-115.77-60.98-37.63 18.14-32.8 64.3 3.22 114.23 34.14 48.86 78.14 79.11 116.63 60.57zm-230.27-471.88 666.08 343-69.27 33.39-666.93-342.6zm536.34 139.33c-94.07 45.34-200.31 9.45-260.31-76.42-63.11-90.32-34.68-177.25 49.13-217.64 80.39-38.74 191.18-20.88 261.01 79.06 57.42 82.17 45.95 168.84-48.97 214.59zm-44.64-60.62c39.34-18.96 28.35-64.13-5.79-112.99-37.76-54.04-78.48-77.96-115.25-60.24-36.77 17.72-31.95 63.89 4.08 113.82 33.62 48.12 77.62 78.37 116.11 59.82l.85-.41"/>
    </g>
    <g class="text" fill-rule="evenodd">
      <path d="m2623.74 2574.06 3.45-17.8h1.95l3.33 16.54 97.27 358.32h119.1l-158.83-489.94h-122.77l-158.15 489.94h118.75zm636.46 67.99c0-60.3-19.07-109.91-57.31-149.07-38.25-39.16-88.2-58.69-149.88-58.69-62.13 0-112.55 19.53-151.14 58.69-38.58 39.16-57.88 88.77-57.88 149.07v88.2c0 60.07 19.3 109.68 57.77 148.96 38.47 39.17 88.66 58.81 150.56 58.81 61.45 0 111.52-19.64 149.99-58.81 38.59-39.28 57.89-88.89 57.89-148.96zm-113.36 88.78c0 35.03-8.27 63.62-24.69 86.02-16.54 22.39-39.74 33.65-69.83 33.65-30.78 0-54.21-11.14-70.52-33.42-16.3-22.28-24.34-50.99-24.34-86.25v-88.67c0-35.48 8.15-64.31 24.69-86.7 16.42-22.4 40.08-33.66 70.86-33.66 29.75 0 52.95 11.26 69.26 33.66 16.42 22.39 24.57 51.22 24.57 86.7zm554.11 200.29v-320.88c0-55.82-18.6-99.11-55.7-129.89-37.09-30.67-85.68-46.06-145.86-46.06-60.75 0-109.79 15.39-147 46.06-37.21 30.78-55.82 74.07-55.82 129.89v320.88h114.05v-320.88c0-29.98 7.69-52.26 23.2-66.73 15.5-14.47 37.32-21.71 65.57-21.71 28.03 0 49.62 7.13 64.78 21.48 15.16 14.36 22.74 36.75 22.74 66.96v320.88zm428.82-317.78.68-2.07c-2.18-57.42-19.18-101.29-50.99-131.5-31.7-30.32-77.75-45.48-138.04-45.48-60.65 0-109.8 18.61-147.7 55.82-38.01 37.21-56.96 85.56-56.96 144.93v102.22c0 59.15 18.26 107.5 54.66 144.82 36.53 37.33 83.85 55.94 142.19 55.94 61.9 0 109.21-15.63 142.06-46.75 32.73-31.24 51.22-75.45 55.47-132.88l-.69-2.07h-110.71c-1.49 31.82-8.61 55.48-21.36 70.98-12.63 15.5-34.22 23.2-64.77 23.2-25.73 0-46.06-10.34-60.88-31.12-14.81-20.68-22.16-47.9-22.16-81.43v-102.91c0-33.76 8.04-61.09 24.23-82 16.08-20.78 38.36-31.24 66.62-31.24 27.33 0 46.74 7.24 58.11 21.83 11.48 14.58 18.03 37.78 19.52 69.71zm442.7-172.16H4459v197.08h-181.34v-197.08h-114.04v489.94h114.04v-205.34H4459v205.34h113.47zm355.77 209.49H4736.1V2528.7h226.48v-87.52h-340.52v489.94h341.21v-87.51H4736.1v-105.43h192.14zm172.47-22.05v-187.44h-114.04v489.94h188.46c56.74 0 101.64-13.09 134.83-39.39 33.31-26.3 49.85-62.25 49.85-107.84 0-25.38-6.66-47.2-19.98-65.35-13.44-18.26-33.08-33.08-59.03-44.45 29.97-8.49 51.56-22.73 64.77-42.49 13.09-19.87 19.64-44.56 19.64-74.19v-30.89c0-12.75 1.95-27.34 5.74-43.65 3.79-16.42 10.45-28.02 19.87-34.91v-6.78h-117.14c-8.96 6.89-14.82 19.3-17.7 36.98-2.75 17.69-4.13 34-4.13 49.04v29.52c0 23.31-6.2 41.11-18.6 53.41-12.29 12.28-30.32 18.49-54.1 18.49zm0 87.51h75c22.97 0 40.43 5.28 52.6 15.73 12.06 10.45 18.15 25.38 18.15 45.02 0 19.99-6.21 36.07-18.73 48.35-12.4 12.29-29.97 18.38-52.6 18.38h-74.42v-127.48M3028.51 2193.5h-212.26v-661.1h-187.53v661.1h-210.56v143.76h610.35zm458.23 143.76V2193.5h210.56v-661.1h187.53v661.1h198.93v-661.1h187.35v307.91h128.86c39.06 0 68.68-10.19 88.87-30.38 20.37-20.18 30.56-49.43 30.56-87.73v-48.49c0-24.71 2.26-51.5 6.79-80.56 4.72-29.05 14.34-49.43 29.06-60.75h192.44v11.13c-15.47 11.32-26.41 30.38-32.64 57.36-6.23 26.79-9.43 50.75-9.43 71.69v50.76c0 48.67-10.76 89.23-32.27 121.87-21.69 32.45-57.16 55.85-106.41 69.81 42.65 18.68 74.91 43.02 96.98 73.02 21.88 29.8 32.83 65.65 32.83 107.35 0 74.9-27.17 133.95-81.88 177.16-54.53 43.2-128.3 64.71-221.5 64.71zm-103.84-648.64h-253.76l-45.28-156.22h-187.91l259.6 804.86h200.75l260.36-804.86h-187.91zm-212.25 143.76h170.74l-83.95 288.29h-3.4zm1100.46 151.69h123.2c37.74 0 66.41 8.68 86.41 25.85 19.81 17.17 29.82 41.7 29.82 73.96 0 32.83-10.2 59.24-30.76 79.43-20.38 20.19-49.24 30.19-86.41 30.19h-122.26zm741.17 1.7h3.39l160.19 351.49h203L5105.1 1815.4v-283h-186.21v292.44l-268.1 512.42h201.87l159.62-351.49"/>
    </g>
  </g>
</svg>